<?xml version="1.0" encoding="UTF-8" standalone="no"?>
<!-- Created with Inkscape (http://www.inkscape.org/) -->

<svg
   xmlns:dc="http://purl.org/dc/elements/1.1/"
   xmlns:cc="http://creativecommons.org/ns#"
   xmlns:rdf="http://www.w3.org/1999/02/22-rdf-syntax-ns#"
   xmlns:svg="http://www.w3.org/2000/svg"
   xmlns="http://www.w3.org/2000/svg"
   xmlns:sodipodi="http://sodipodi.sourceforge.net/DTD/sodipodi-0.dtd"
   xmlns:inkscape="http://www.inkscape.org/namespaces/inkscape"
   width="400"
   height="400"
   id="svg2"
   sodipodi:version="0.32"
   inkscape:version="0.48.3.1 r9886"
   sodipodi:docname="avatar.svg"
   inkscape:output_extension="org.inkscape.output.svg.inkscape"
   version="1.1">
  <defs
     id="defs4">
    <inkscape:perspective
       sodipodi:type="inkscape:persp3d"
       inkscape:vp_x="0 : 526.18109 : 1"
       inkscape:vp_y="0 : 1000 : 0"
       inkscape:vp_z="744.09448 : 526.18109 : 1"
       inkscape:persp3d-origin="372.04724 : 350.78739 : 1"
       id="perspective10" />
    <inkscape:perspective
       id="perspective2390"
       inkscape:persp3d-origin="372.04724 : 350.78739 : 1"
       inkscape:vp_z="744.09448 : 526.18109 : 1"
       inkscape:vp_y="0 : 1000 : 0"
       inkscape:vp_x="0 : 526.18109 : 1"
       sodipodi:type="inkscape:persp3d" />
  </defs>
  <sodipodi:namedview
     id="base"
     pagecolor="#ffffff"
     bordercolor="#666666"
     borderopacity="1.0"
     gridtolerance="10000"
     guidetolerance="10"
     objecttolerance="10"
     inkscape:pageopacity="0.0"
     inkscape:pageshadow="2"
     inkscape:zoom="0.98994949"
     inkscape:cx="-11.531991"
     inkscape:cy="136.46377"
     inkscape:document-units="px"
     inkscape:current-layer="layer1"
     showgrid="false"
     inkscape:window-width="1280"
     inkscape:window-height="975"
     inkscape:window-x="36"
     inkscape:window-y="27"
     borderlayer="true"
     inkscape:window-maximized="0" />
  <metadata
     id="metadata7">
    <rdf:RDF>
      <cc:Work
         rdf:about="">
        <dc:format>image/svg+xml</dc:format>
        <dc:type
           rdf:resource="http://purl.org/dc/dcmitype/StillImage" />
        <dc:title />
        <dc:subject>
          <rdf:Bag>
            <rdf:li>Man silhouette people person head shoulders face</rdf:li>
          </rdf:Bag>
        </dc:subject>
      </cc:Work>
    </rdf:RDF>
  </metadata>
  <g
     inkscape:label="Layer 1"
     inkscape:groupmode="layer"
     id="layer1"
     transform="translate(0,-652.36218)">
    <path
       style="fill:#000000;fill-opacity:0.07860262"
       d="m 2.7142813,1046.4694 c 0,-6.6306 11.0414797,-63.61635 12.9128977,-66.64438 0.666767,-1.07883 2.322961,-8.06699 3.680414,-15.52921 3.166593,-17.40713 9.004758,-36.11041 12.441219,-39.85693 1.477297,-1.61059 14.733994,-5.43905 29.459347,-8.50768 45.236531,-9.42692 65.174001,-16.68821 75.017321,-27.3215 4.69175,-5.0683 11.78761,-10.35054 15.76862,-11.73831 6.32495,-2.2049 7.23816,-3.60775 7.23816,-11.11928 0,-4.72782 -1.44511,-10.6696 -3.21135,-13.20397 -1.76621,-2.53438 -3.98837,-9.33855 -4.93812,-15.12036 -0.94977,-5.78182 -3.70962,-12.39302 -6.13304,-14.69154 -2.42341,-2.29856 -4.40621,-5.23203 -4.40621,-6.51887 0,-1.28681 -2.36529,-5.53885 -5.2562,-9.44891 -4.48354,-6.06421 -5.29923,-10.25701 -5.549,-28.52253 -0.48255,-35.28877 2.54247,-51.4368 12.4247,-66.32499 13.95362,-21.02203 40.90025,-35.58219 65.97653,-35.64934 9.79849,-0.0262 13.91545,1.10983 18.03003,4.97527 3.10707,2.91895 10.40898,5.81182 17.49832,6.93247 14.10472,2.22966 26.79001,11.18685 32.9492,23.26571 3.09648,6.07257 4.0854,13.76902 4.08817,31.81726 0.002,13.34729 1.03,24.44138 2.33969,25.25083 6.35241,3.92601 0.42637,31.05177 -9.53923,43.66469 -3.74737,4.74285 -6.83647,10.52466 -6.8647,12.84848 -0.0281,2.32384 -2.13069,8.80773 -4.67217,14.40863 -8.44062,18.60146 -5.53611,37.01166 6.48938,41.13259 2.24086,0.76791 7.75366,6.12723 12.25064,11.90957 4.49697,5.78235 10.80441,11.10747 14.01654,11.83355 3.21212,0.72611 17.61715,5.94805 32.01114,11.60436 14.39401,5.65628 26.87251,10.28416 27.73002,10.28416 0.85748,0 6.11294,2.89091 11.67875,6.42425 9.94651,6.3143 15.01539,14.74285 15.01539,24.9676 0,2.74874 2.17382,9.16213 4.83071,14.25197 4.27567,8.19094 7.18589,23.89896 13.07569,70.57661 l 1.25278,9.9284 -198.80283,0 -198.8028087,0 0,-5.8786 z"
       id="path2396"
       inkscape:connector-curvature="0" />
  </g>
</svg>
